<?xml version="1.0" encoding="UTF-8" standalone="no"?>
<!-- Created with Inkscape (http://www.inkscape.org/) -->

<svg
   xmlns:dc="http://purl.org/dc/elements/1.1/"
   xmlns:cc="http://creativecommons.org/ns#"
   xmlns:rdf="http://www.w3.org/1999/02/22-rdf-syntax-ns#"
   xmlns:svg="http://www.w3.org/2000/svg"
   xmlns="http://www.w3.org/2000/svg"
   xmlns:sodipodi="http://sodipodi.sourceforge.net/DTD/sodipodi-0.dtd"
   xmlns:inkscape="http://www.inkscape.org/namespaces/inkscape"
   viewBox="0 0 210 297"
   version="1.1"
   id="svg8"
   inkscape:version="0.92.4 (5da689c313, 2019-01-14)"
   sodipodi:docname="Crown.svg">
  <defs
     id="defs2" />
  <sodipodi:namedview
     id="base"
     pagecolor="#ffffff"
     bordercolor="#666666"
     borderopacity="1.0"
     inkscape:pageopacity="0.0"
     inkscape:pageshadow="2"
     inkscape:zoom="0.7"
     inkscape:cx="46.775294"
     inkscape:cy="460.1612"
     inkscape:current-layer="layer1"
     showgrid="false"
     inkscape:window-width="1920"
     inkscape:window-height="986"
     inkscape:window-x="496"
     inkscape:window-y="2149"
     inkscape:window-maximized="1" />
  <metadata
     id="metadata5">
    <rdf:RDF>
      <cc:Work
         rdf:about="">
        <dc:format>image/svg+xml</dc:format>
        <dc:type
           rdf:resource="http://purl.org/dc/dcmitype/StillImage" />
        <dc:title></dc:title>
      </cc:Work>
    </rdf:RDF>
  </metadata>
  <g
     inkscape:label="Ebene 1"
     inkscape:groupmode="layer"
     id="layer1">
    <path
       style="fill:none;stroke:#000000;stroke-width:7;stroke-linecap:butt;stroke-linejoin:miter;stroke-opacity:1;stroke-miterlimit:4;stroke-dasharray:none"
       d="M 12.85119,95.916667 22.964159,178.843 27.970239,219.89285 183.34689,220.02637 200.45214,93.34062 152.34363,180.47048 107.97689,94.944236 58.799295,180.47048 Z"
       id="path817"
       inkscape:connector-curvature="0"
       sodipodi:nodetypes="ccccccccc" />
    <path
       style="fill:#ffcc00;fill-opacity:1;stroke-width:64.06298828;stroke-miterlimit:4;stroke-dasharray:none"
       d="M 106.32495,825.35541 C 104.50566,814.97314 51.266236,374.85939 51.623128,373.15247 c 0.212261,-1.01518 38.369054,68.05657 84.792872,153.4928 46.42382,85.43621 84.99524,155.51904 85.71429,155.7396 0.71904,0.22057 33.12877,-55.00822 72.02162,-122.73063 38.89286,-67.7224 80.43652,-140.04705 92.31925,-160.72144 l 21.60497,-37.58979 83.37754,160.76203 c 45.85766,88.41911 83.91113,160.58417 84.56327,160.36678 0.65216,-0.21738 41.16003,-72.80491 90.0175,-161.30564 48.85746,-88.50072 88.94435,-160.80219 89.08195,-160.66992 0.13757,0.13227 -14.00236,105.82433 -31.42215,234.87125 L 692.0219,829.99827 H 399.58021 107.13852 Z"
       id="path821"
       inkscape:connector-curvature="0"
       transform="scale(0.26458333)" />
  </g>
</svg>
