<?xml version="1.0" encoding="UTF-8" standalone="no"?>
<!DOCTYPE svg PUBLIC "-//W3C//DTD SVG 1.1 Basic//EN" "http://www.w3.org/Graphics/SVG/1.1/DTD/svg11-basic.dtd">
<svg width="100" height="86.6025403784" viewBox="0 0 100 86.6025403784" xmlns="http://www.w3.org/2000/svg">
	<polygon points="37.5,21.6506 62.5,21.6506 75,43.301235094611 62.5,64.9518701892219 37.5,64.9518701892219 25,43.301235094611" fill="#ffc03b" />
	<g transform="translate(43,36) scale(0.25)">
		<path style="fill:none;stroke:#000;stroke-linecap:round;stroke-linejoin:round;stroke-width:2px" d="M21 16s-2-3-1-5 3 1 3 1M21 10s-2-3-1-5 3 1 3 1"/>
		<path style="fill:none;stroke:#000;stroke-linecap:round;stroke-linejoin:round;stroke-width:2px" d="M25 15s2-3 3-1-2 5-2 5v25h-4V22s-3-3-2-5 3 1 3 1M27 13s2-3 1-5-3 1-3 1M25 7V6M29 7V6M16 16s-2-3-1-5 3 1 3 1M16 10s-2-3-1-5 3 1 3 1M18 18s-2-3-3-1 3 6 3 6v21h4M32 16s2-3 1-5-3 1-3 1M32 10s2-3 1-5-3 1-3 1M30 18s2-3 3-1-3 5-3 5v22h-4"/>
		<path style="fill:none;stroke:#000;stroke-linecap:round;stroke-linejoin:round;stroke-width:2px" d="m17 30 14 .16L33 29M32 32l-1-2"/>
	</g>
</svg>
