<?xml version="1.0" encoding="UTF-8" standalone="no"?>
<!DOCTYPE svg PUBLIC "-//W3C//DTD SVG 1.1 Basic//EN" "http://www.w3.org/Graphics/SVG/1.1/DTD/svg11-basic.dtd">
<svg width="100" height="86.6025403784" viewBox="0 0 100 86.6025403784" xmlns="http://www.w3.org/2000/svg">
	<polygon points="37.5,21.6506 62.5,21.6506 75,43.301235094611 62.5,64.9518701892219 37.5,64.9518701892219 25,43.301235094611" fill="#677437" />
	<g transform="translate(42.5,35) scale(0.15)">
		<path d="M40 43.333A6.669 6.669 0 0 1 33.333 50a6.671 6.671 0 0 1-6.667-6.667 6.671 6.671 0 0 1 6.667-6.667A6.67 6.67 0 0 1 40 43.333z"/>
		<path d="M90 33.333c0-3.281-1.602-6.166-4.043-7.988.437-3.018-.472-6.191-2.79-8.509-2.32-2.321-5.494-3.229-8.509-2.793C72.832 11.602 69.948 10 66.667 10s-6.166 1.602-7.988 4.043c-3.018-.436-6.191.472-8.51 2.793-2.259 2.254-3.154 5.317-2.799 8.26-1.881-.972-3.991-1.35-6.045-1.053C39.499 21.602 36.615 20 33.333 20s-6.166 1.602-7.988 4.043c-3.018-.436-6.191.472-8.511 2.793-2.319 2.318-3.228 5.492-2.792 8.509C11.602 37.168 10 40.052 10 43.333s1.602 6.165 4.043 7.988c-.436 3.018.472 6.191 2.792 8.51 2.319 2.32 5.493 3.229 8.511 2.793 1.165 1.563 2.794 2.718 4.655 3.392v10.651l-10-10a22.684 22.684 0 0 0 6.667 16.09L30 86.094V90h6.667V66.016c1.86-.674 3.49-1.829 4.658-3.392 3.015.436 6.188-.473 8.509-2.793 2.256-2.256 3.151-5.319 2.796-8.262 1.882.973 3.991 1.354 6.049 1.055 1.165 1.563 2.793 2.718 4.654 3.392v20.651l-10-10A22.689 22.689 0 0 0 60 82.757l3.333 3.337V90H70V76.094l3.333-3.337A22.689 22.689 0 0 0 80 56.667l-10 10V56.016c1.862-.674 3.489-1.829 4.658-3.392 3.015.436 6.188-.473 8.509-2.793 2.318-2.318 3.227-5.492 2.79-8.509C88.398 39.499 90 36.615 90 33.333zM46.025 52.275c.075.511.133 1.807-.908 2.845-.778.778-1.693.941-2.324.941-.169 0-.342-.014-.514-.036l-3.919-.566-2.373 3.174c-.31.41-1.182 1.367-2.654 1.367s-2.344-.954-2.65-1.367l-2.37-3.177-3.926.569a4.001 4.001 0 0 1-.515.036c-.631 0-1.543-.163-2.324-.944-1.042-1.038-.983-2.331-.908-2.839l.57-3.925-3.179-2.37c-.412-.306-1.366-1.178-1.366-2.649 0-1.472.954-2.344 1.366-2.65l3.179-2.37-.57-3.926c-.075-.508-.133-1.8.908-2.839.781-.781 1.693-.944 2.324-.944.173 0 .345.013.515.036l3.926.57 2.37-3.177c.306-.413 1.178-1.367 2.65-1.367 1.471 0 2.344.957 2.653 1.367l2.373 3.174 3.919-.566c.172-.022.345-.036.514-.036.264 0 .581.042.912.132a9.795 9.795 0 0 0-.371 2.596c0 3.281 1.602 6.165 4.043 7.988-.248 1.725-.007 3.484.638 5.124l-2.555 1.908.566 3.921zM81.97 35.98l-3.178 2.373.566 3.922c.075.511.134 1.807-.908 2.845-.777.778-1.692.94-2.324.94-.169 0-.342-.013-.514-.036l-3.92-.566-2.373 3.174c-.308.411-1.181 1.368-2.652 1.368-1.472 0-2.344-.954-2.65-1.367l-2.369-3.177-3.926.57c-.17.023-.342.036-.515.036-.632 0-1.543-.163-2.324-.944-1.042-1.039-.983-2.331-.908-2.838l.569-3.926-3.177-2.37C50.954 35.677 50 34.805 50 33.333c0-1.472.954-2.344 1.367-2.65l3.177-2.37-.569-3.926c-.075-.508-.134-1.8.908-2.839.781-.781 1.692-.944 2.324-.944.173 0 .345.013.515.036l3.926.57 2.369-3.177c.307-.413 1.179-1.367 2.65-1.367 1.471 0 2.344.957 2.652 1.367l2.373 3.174 3.92-.566c.172-.022.345-.036.514-.036.632 0 1.547.163 2.328.944 1.038 1.035.979 2.331.904 2.842l-.566 3.923 3.178 2.373c.41.306 1.363 1.178 1.363 2.646s-.953 2.341-1.363 2.647z"/>
		<path d="M73.333 33.333A6.669 6.669 0 0 1 66.667 40 6.671 6.671 0 0 1 60 33.333a6.671 6.671 0 0 1 6.667-6.667 6.67 6.67 0 0 1 6.666 6.667z"/>
	</g>
</svg>
