<?xml version="1.0" encoding="UTF-8" standalone="no"?>
<!DOCTYPE svg PUBLIC "-//W3C//DTD SVG 1.1 Basic//EN" "http://www.w3.org/Graphics/SVG/1.1/DTD/svg11-basic.dtd">
<svg width="100" height="86.6025403784" viewBox="0 0 100 86.6025403784" xmlns="http://www.w3.org/2000/svg">
	<polygon points="37.5,21.6506 62.5,21.6506 75,43.301235094611 62.5,64.9518701892219 37.5,64.9518701892219 25,43.301235094611" fill="#6e5726" />
	<g transform="translate(42.5,35) scale(0.15)">
		<path d="M66.666 36.667a23.52 23.52 0 0 0-4.766.489C58.334 21.374 48.392 10 36.667 10 21.94 10 10 27.91 10 50c0 13.593 10.184 24.792 23.333 26.436V90H40V76.438a26.673 26.673 0 0 0 8.086-2.366 23.274 23.274 0 0 0 15.246 8.997V90H70v-6.931c11.301-1.621 20-11.318 20-23.07 0-12.885-10.447-23.332-23.334-23.332zM40 69.7V56.666h10V50H40V30h-6.667v13.333h-10V50h10v19.7C23.89 68.104 16.667 59.888 16.667 50c0-18.068 9.158-33.334 20-33.334 10.839 0 19.999 15.266 19.999 33.334 0 9.889-7.223 18.104-16.666 19.7zm30 6.628v-9.662h-6.668v9.662c-3.846-.784-7.16-2.946-9.549-5.889 5.832-4.894 9.549-12.23 9.549-20.439 0-2.122-.143-4.191-.354-6.224 1.188-.271 2.418-.443 3.688-.443 9.189 0 16.666 7.478 16.666 16.666 0 8.047-5.734 14.783-13.332 16.329z"/>
	</g>
</svg>
