<?xml version="1.0" encoding="UTF-8" standalone="no"?>
<!DOCTYPE svg PUBLIC "-//W3C//DTD SVG 1.1 Basic//EN" "http://www.w3.org/Graphics/SVG/1.1/DTD/svg11-basic.dtd">
<svg width="100" height="86.6025403784" viewBox="0 0 100 86.6025403784" xmlns="http://www.w3.org/2000/svg">
	<polygon points="37.5,21.6506 62.5,21.6506 75,43.301235094611 62.5,64.9518701892219 37.5,64.9518701892219 25,43.301235094611" fill="#99c4b8" />
	<g transform="translate(39.76,33) scale(0.01)">
		<path style="fill:#212121;fill-rule:nonzero" d="M307.499 496.417c-13.944-10.77-33.98-8.194-44.75 5.75-10.769 13.944-8.194 33.98 5.75 44.75 39.058 30.07 97.651 62.582 168.35 62.582 50.745 0 106.947-16.674 165.301-62.832 13.807-10.907 16.158-30.944 5.25-44.75-10.907-13.808-30.944-16.158-44.75-5.25-45.352 35.872-87.941 48.83-125.8 48.83-53.27 0-98.72-25.498-129.35-49.08z"/>
		<path style="fill:#212121;fill-rule:nonzero" d="M896.3 546.916c13.944-10.77 16.519-30.805 5.75-44.75-10.77-13.944-30.806-16.518-44.75-5.75-30.63 23.583-76.08 49.081-129.35 49.081-37.86 0-80.45-12.959-125.8-48.831-13.807-10.908-33.843-8.557-44.75 5.25-10.908 13.807-8.558 33.843 5.25 44.75 58.354 46.158 114.555 62.833 165.3 62.833 70.699 0 129.292-32.512 168.35-62.583z"/>
		<path style="fill:#212121;fill-rule:nonzero" d="M896.3 496.417c-13.944-10.77-33.98-8.194-44.75 5.75-10.769 13.944-8.194 33.98 5.75 44.75 39.058 30.07 97.65 62.582 168.35 62.582 50.744 0 106.945-16.674 165.3-62.832 13.807-10.907 16.158-30.944 5.25-44.75-10.907-13.808-30.944-16.158-44.75-5.25-45.352 35.872-87.941 48.83-125.8 48.83-53.271 0-98.719-25.498-129.35-49.08z"/>
		<path style="fill:#212121;fill-rule:nonzero" d="M1485.1 546.916c13.944-10.77 16.519-30.805 5.75-44.75-10.77-13.944-30.806-16.518-44.75-5.75-30.63 23.583-76.078 49.081-129.35 49.081-37.86 0-80.45-12.959-125.8-48.831-13.807-10.908-33.843-8.557-44.75 5.25-10.908 13.807-8.558 33.843 5.25 44.75 58.354 46.158 114.558 62.833 165.3 62.833 70.7 0 129.292-32.512 168.35-62.583z"/>
		<path style="fill:#212121;fill-rule:nonzero" d="M1485.1 496.417c-13.944-10.77-33.98-8.194-44.75 5.75-10.769 13.944-8.194 33.98 5.75 44.75 39.058 30.07 97.65 62.582 168.35 62.582 50.743 0 106.947-16.674 165.301-62.832 13.807-10.907 16.158-30.944 5.25-44.75-10.907-13.808-30.944-16.158-44.75-5.25-45.352 35.872-87.941 48.83-125.8 48.83-53.272 0-98.72-25.498-129.35-49.08zM307.499 763.605c-13.944-10.77-33.98-8.194-44.75 5.75-10.769 13.944-8.194 33.98 5.75 44.75 39.058 30.07 97.651 62.582 168.35 62.582 50.745 0 106.947-16.674 165.301-62.832 13.807-10.907 16.158-30.944 5.25-44.75-10.907-13.808-30.944-16.158-44.75-5.25-45.352 35.872-87.941 48.83-125.8 48.83-53.27 0-98.72-25.498-129.35-49.08z"/>
		<path style="fill:#212121;fill-rule:nonzero" d="M896.3 814.104c13.944-10.77 16.519-30.805 5.75-44.75-10.77-13.944-30.806-16.518-44.75-5.75-30.63 23.583-76.08 49.081-129.35 49.081-37.86 0-80.45-12.959-125.8-48.831-13.807-10.908-33.843-8.557-44.75 5.25-10.908 13.807-8.558 33.843 5.25 44.75 58.354 46.158 114.555 62.833 165.3 62.833 70.699 0 129.292-32.512 168.35-62.583z"/>
		<path style="fill:#212121;fill-rule:nonzero" d="M896.3 763.605c-13.944-10.77-33.98-8.194-44.75 5.75-10.769 13.944-8.194 33.98 5.75 44.75 39.058 30.07 97.65 62.582 168.35 62.582 50.744 0 106.945-16.674 165.3-62.832 13.807-10.907 16.158-30.944 5.25-44.75-10.907-13.808-30.944-16.158-44.75-5.25-45.352 35.872-87.941 48.83-125.8 48.83-53.271 0-98.719-25.498-129.35-49.08z"/>
		<path style="fill:#212121;fill-rule:nonzero" d="M1485.1 814.104c13.944-10.77 16.519-30.805 5.75-44.75-10.77-13.944-30.806-16.518-44.75-5.75-30.63 23.583-76.078 49.081-129.35 49.081-37.86 0-80.45-12.959-125.8-48.831-13.807-10.908-33.843-8.557-44.75 5.25-10.908 13.807-8.558 33.843 5.25 44.75 58.354 46.158 114.558 62.833 165.3 62.833 70.7 0 129.292-32.512 168.35-62.583z"/>
		<path style="fill:#212121;fill-rule:nonzero" d="M1485.1 763.605c-13.944-10.77-33.98-8.194-44.75 5.75-10.769 13.944-8.194 33.98 5.75 44.75 39.058 30.07 97.65 62.582 168.35 62.582 50.743 0 106.947-16.674 165.301-62.832 13.807-10.907 16.158-30.944 5.25-44.75-10.907-13.808-30.944-16.158-44.75-5.25-45.352 35.872-87.941 48.83-125.8 48.83-53.272 0-98.72-25.498-129.35-49.08zM1524 1286.6c-12.74-19.085-26.972-36.872-42.488-53.359-84.209-89.479-205.81-139.66-333.136-151.657-128.13-12.073-261.492 14.504-368.28 78.577-22.579 13.545-43.983 28.807-63.904 45.773a229.025 229.025 0 0 1 14.702 80.661c0 27.282-4.902 54.623-14.704 80.67 19.922 16.965 41.327 32.229 63.904 45.775 106.788 64.072 240.151 90.648 368.281 78.575 127.326-11.997 248.928-62.178 333.137-151.657 15.516-16.487 29.747-34.273 42.488-53.358zm4.012-97.11a471.925 471.925 0 0 1 59.684 78.377c7.256 10.064 8.277 23.885 1.49 35.198l-.087-.052a471.845 471.845 0 0 1-61.087 80.695c-95.367 101.335-231.658 158.03-373.637 171.408-141.177 13.303-288.552-16.239-407.03-87.325-32.34-19.404-62.51-41.845-89.801-67.29-11.46-9.274-15.324-25.585-8.41-39.28l.071.036c11.79-23.358 17.687-48.96 17.687-74.661 0-25.002-5.582-49.913-16.744-72.754-7.464-12.604-5.49-29.13 5.622-39.587l21.93 23.303-21.875-23.25c27.743-26.11 58.5-49.088 91.52-68.898 118.48-71.086 265.852-100.63 407.031-87.326 141.98 13.378 278.27 70.073 373.636 171.408z"/>
		<path style="fill:#212121;fill-rule:nonzero" d="M547.035 1124.13c18.447 48.43 27.676 105.653 27.676 162.47 0 56.817-9.228 114.04-27.676 162.469 47.511-17.818 80.804-48.148 99.984-83.623 13.261-24.527 19.892-51.66 19.892-78.847 0-27.188-6.632-54.32-19.892-78.847-19.18-35.476-52.472-65.803-99.984-83.622zm-36.326 162.47c0-72.162-16.147-143.425-48.436-187.993-5.765-6.531-8.86-15.38-7.822-24.72 1.95-17.563 17.774-30.221 35.338-28.27l-.006.058c106.015 11.786 177.29 64.875 213.487 131.826 18.428 34.085 27.643 71.62 27.643 109.097 0 37.476-9.214 75.014-27.643 109.097-35.96 66.512-106.546 119.336-211.413 131.583-8.42 1.496-17.416-.365-24.8-5.901-14.138-10.602-17.005-30.66-6.403-44.8l25.601 19.198-25.5-19.125c33.302-44.41 49.954-116.767 49.954-190.051zM1368.33 1244.32c11.673 0 22.245 4.735 29.895 12.385 7.652 7.652 12.385 18.222 12.385 29.895 0 11.6-4.732 22.15-12.385 29.832l-.032.03-.001.002.033.033c-.372.372-.76.723-1.158 1.05-7.574 7.032-17.678 11.333-28.737 11.333-11.6 0-22.15-4.732-29.831-12.385l-.03-.032-.002-.001-.033.033c-.372-.372-.723-.76-1.05-1.158-7.032-7.574-11.333-17.678-11.333-28.737 0-11.598 4.732-22.15 12.385-29.832l.032-.031.001-.001-.033-.033c.372-.372.76-.723 1.158-1.05 7.574-7.033 17.677-11.333 28.736-11.333zm7.27 35.01a10.25 10.25 0 0 0-7.27-3.01c-2.613 0-4.968.928-6.74 2.458-.172.189-.347.373-.529.555l-11.312-11.315 11.25 11.312c-1.819 1.82-2.947 4.388-2.947 7.27 0 2.609.925 4.963 2.452 6.736.19.173.377.35.56.534l-11.315 11.312 11.312-11.25c1.82 1.82 4.388 2.947 7.269 2.947 2.609 0 4.963-.925 6.736-2.452.173-.19.35-.377.534-.56l11.312 11.315-11.25-11.312c1.82-1.82 2.947-4.39 2.947-7.27 0-2.84-1.15-5.41-3.01-7.27z"/>
		<path style="fill:#212121;fill-rule:nonzero" d="M1315.72 1102.13c12.495-12.426 12.552-32.63.125-45.125-12.426-12.495-32.63-12.552-45.125-.125-.52.515-183.885 177.145 1.49 452.696 9.803 14.635 29.616 18.552 44.25 8.75 14.636-9.802 18.553-29.615 8.751-44.25-155.648-231.363-9.904-371.537-9.491-371.946z"/>
	</g>
</svg>
